<svg width="512" height="512" xmlns="http://www.w3.org/2000/svg" preserveAspectRatio="xMidYMid meet" version="1.0">

 <g>
  <title>Layer 1</title>
  <g id="svg_1" fill="#000000" transform="translate(0 512) scale(0.1 -0.1)">
   <path fill="#ffffff" id="svg_2" d="m2430,5114c-213,-25 -344,-56 -494,-115c-736,-292 -1173,-1050 -1055,-1833c75,-498 368,-936 804,-1201c173,-104 403,-190 593,-219l77,-12l3,-287l2,-287l-222,0c-195,0 -228,-3 -263,-19c-127,-59 -153,-215 -52,-319c51,-53 102,-62 333,-62l203,0l3,-312c3,-309 3,-313 27,-351c13,-21 42,-50 64,-65c58,-39 156,-39 214,0c22,15 51,44 64,65c24,38 24,42 27,351l3,312l203,0c231,0 282,9 333,62c101,104 75,260 -52,319c-35,16 -68,19 -263,19l-222,0l2,287l3,287l77,12c190,29 420,115 593,219c984,597 1108,1969 247,2730c-238,210 -530,347 -852,401c-86,15 -336,26 -400,18zm398,-424c258,-55 458,-165 647,-355c258,-258 380,-550 379,-915c0,-162 -14,-258 -56,-390c-155,-484 -564,-827 -1068,-895c-132,-18 -208,-18 -340,0c-504,68 -913,411 -1068,895c-42,132 -56,228 -56,390c-1,173 16,277 64,417c69,200 161,344 315,498c214,215 451,332 756,375c99,14 320,4 427,-20z"/>
  </g>
 </g>
</svg>