<?xml version="1.0" standalone="no"?>
<!DOCTYPE svg PUBLIC "-//W3C//DTD SVG 20010904//EN"
 "http://www.w3.org/TR/2001/REC-SVG-20010904/DTD/svg10.dtd">
<svg version="1.0" xmlns="http://www.w3.org/2000/svg"
 width="512.000000pt" height="512.000000pt" viewBox="0 0 512.000000 512.000000"
 preserveAspectRatio="xMidYMid meet">

<g transform="translate(0.000000,512.000000) scale(0.100000,-0.100000)"
fill="#000000" stroke="none">
<path d="M2430 5114 c-213 -25 -344 -56 -494 -115 -736 -292 -1173 -1050
-1055 -1833 75 -498 368 -936 804 -1201 173 -104 403 -190 593 -219 l77 -12 3
-287 2 -287 -222 0 c-195 0 -228 -3 -263 -19 -127 -59 -153 -215 -52 -319 51
-53 102 -62 333 -62 l203 0 3 -312 c3 -309 3 -313 27 -351 13 -21 42 -50 64
-65 58 -39 156 -39 214 0 22 15 51 44 64 65 24 38 24 42 27 351 l3 312 203 0
c231 0 282 9 333 62 101 104 75 260 -52 319 -35 16 -68 19 -263 19 l-222 0 2
287 3 287 77 12 c190 29 420 115 593 219 984 597 1108 1969 247 2730 -238 210
-530 347 -852 401 -86 15 -336 26 -400 18z m398 -424 c258 -55 458 -165 647
-355 258 -258 380 -550 379 -915 0 -162 -14 -258 -56 -390 -155 -484 -564
-827 -1068 -895 -132 -18 -208 -18 -340 0 -504 68 -913 411 -1068 895 -42 132
-56 228 -56 390 -1 173 16 277 64 417 69 200 161 344 315 498 214 215 451 332
756 375 99 14 320 4 427 -20z"/>
</g>
</svg>
