<svg width="512" height="512" xmlns="http://www.w3.org/2000/svg" preserveAspectRatio="xMidYMid meet" version="1.0">

 <g>
  <title>Layer 1</title>
  <g id="svg_1" fill="#000000" transform="translate(0 512) scale(0.1 -0.1)">
   <path fill="#ffffff" id="svg_2" d="m3325,5096c-59,-27 -77,-46 -104,-106c-37,-81 -20,-169 45,-234c62,-62 51,-61 607,-66l507,-5l-632,-632l-633,-632l-60,45c-333,252 -792,391 -1215,371c-491,-25 -931,-219 -1275,-562c-292,-292 -472,-646 -542,-1065c-24,-144 -24,-436 0,-580c70,-419 250,-773 542,-1065c292,-292 646,-472 1065,-542c144,-24 436,-24 580,0c575,96 1052,416 1352,907c399,653 360,1522 -96,2125l-45,60l632,633l632,632l5,-507c4,-439 7,-513 21,-543c34,-73 118,-129 194,-130c50,0 135,39 163,74c54,70 53,46 50,901l-3,790l-25,45c-28,49 -73,84 -129,100c-23,6 -322,10 -811,10l-775,0l-50,-24zm-1185,-1700c330,-55 609,-195 835,-421c405,-406 543,-1016 350,-1555c-165,-463 -560,-824 -1035,-945c-235,-60 -505,-60 -740,0c-522,133 -942,553 -1075,1075c-60,235 -60,505 0,740c133,522 552,941 1075,1075c174,45 425,58 590,31z"/>
  </g>
 </g>
</svg>