<?xml version="1.0" standalone="no"?>
<!DOCTYPE svg PUBLIC "-//W3C//DTD SVG 20010904//EN"
 "http://www.w3.org/TR/2001/REC-SVG-20010904/DTD/svg10.dtd">
<svg version="1.0" xmlns="http://www.w3.org/2000/svg"
 width="512.000000pt" height="512.000000pt" viewBox="0 0 512.000000 512.000000"
 preserveAspectRatio="xMidYMid meet">

<g transform="translate(0.000000,512.000000) scale(0.100000,-0.100000)"
fill="#000000" stroke="none">
<path d="M3325 5096 c-59 -27 -77 -46 -104 -106 -37 -81 -20 -169 45 -234 62
-62 51 -61 607 -66 l507 -5 -632 -632 -633 -632 -60 45 c-333 252 -792 391
-1215 371 -491 -25 -931 -219 -1275 -562 -292 -292 -472 -646 -542 -1065 -24
-144 -24 -436 0 -580 70 -419 250 -773 542 -1065 292 -292 646 -472 1065 -542
144 -24 436 -24 580 0 575 96 1052 416 1352 907 399 653 360 1522 -96 2125
l-45 60 632 633 632 632 5 -507 c4 -439 7 -513 21 -543 34 -73 118 -129 194
-130 50 0 135 39 163 74 54 70 53 46 50 901 l-3 790 -25 45 c-28 49 -73 84
-129 100 -23 6 -322 10 -811 10 l-775 0 -50 -24z m-1185 -1700 c330 -55 609
-195 835 -421 405 -406 543 -1016 350 -1555 -165 -463 -560 -824 -1035 -945
-235 -60 -505 -60 -740 0 -522 133 -942 553 -1075 1075 -60 235 -60 505 0 740
133 522 552 941 1075 1075 174 45 425 58 590 31z"/>
</g>
</svg>
