<svg width="512" height="512" xmlns="http://www.w3.org/2000/svg" preserveAspectRatio="xMidYMid meet" version="1.0">

 <g>
  <title>Layer 1</title>
  <g id="svg_1" fill="#000000" transform="translate(0 512) scale(0.1 -0.1)">
   <path fill="#ffffff" id="svg_2" d="m2330,5110c-494,-48 -950,-230 -1350,-538c-195,-150 -448,-432 -594,-662c-63,-99 -186,-351 -230,-471c-49,-134 -102,-340 -128,-499c-31,-195 -31,-565 0,-760c45,-276 116,-498 237,-745c132,-269 269,-460 489,-681c221,-220 412,-357 681,-489c247,-121 469,-192 745,-237c195,-31 565,-31 760,0c276,45 498,116 745,237c269,132 460,269 681,489c220,221 357,412 489,681c88,179 132,296 180,476c63,240 78,371 78,649c0,278 -15,409 -78,649c-48,180 -92,297 -180,476c-132,269 -269,460 -489,681c-221,220 -412,357 -681,489c-246,121 -474,193 -740,235c-147,23 -475,34 -615,20zm468,-401c488,-53 934,-270 1288,-623c415,-415 634,-943 634,-1526c0,-583 -219,-1111 -634,-1526c-415,-415 -943,-634 -1526,-634c-583,0 -1111,219 -1526,634c-415,415 -634,943 -634,1526c0,583 219,1111 634,1526c349,349 800,569 1276,623c110,12 376,13 488,0z"/>
   <path fill="#ffffff" id="svg_3" d="m2510,3328c-42,-9 -79,-43 -568,-531c-288,-287 -530,-534 -538,-549c-29,-56 -29,-112 1,-173c45,-94 132,-132 235,-105c41,11 88,54 482,448l438,436l432,-431c456,-454 477,-473 563,-473c140,0 235,149 176,275c-13,27 -191,211 -547,567c-446,443 -535,527 -564,533c-19,3 -42,8 -50,10c-8,1 -35,-2 -60,-7z"/>
  </g>
 </g>
</svg>